<mxfile host="app.diagrams.net" agent="Mozilla/5.0 (X11; Linux x86_64) AppleWebKit/537.36 (KHTML, like Gecko) Chrome/138.0.0.0 Safari/537.36" version="28.0.9">
  <diagram name="第 1 页" id="57hcsKKB2MVOZ3STU9a-">
    <mxGraphModel dx="1133" dy="661" grid="1" gridSize="10" guides="1" tooltips="1" connect="1" arrows="1" fold="1" page="1" pageScale="1" pageWidth="827" pageHeight="1169" math="0" shadow="0">
      <root>
        <mxCell id="0" />
        <mxCell id="1" parent="0" />
        <mxCell id="2LG2wr8MXocSaouzzoDe-3" value="&lt;span style=&quot;font-weight: 400;&quot;&gt;sample symbol&lt;/span&gt;" style="swimlane;whiteSpace=wrap;html=1;fontSize=24;" parent="1" vertex="1">
          <mxGeometry x="204" y="30" width="420" height="160" as="geometry" />
        </mxCell>
        <mxCell id="2LG2wr8MXocSaouzzoDe-4" value="&lt;font&gt;For symbol in Symbols&lt;/font&gt;" style="rounded=0;whiteSpace=wrap;html=1;fontSize=24;" parent="2LG2wr8MXocSaouzzoDe-3" vertex="1">
          <mxGeometry x="55" y="60" width="310" height="60" as="geometry" />
        </mxCell>
        <mxCell id="pFw3Jc35ZW8T42Vb6-bO-5" value="&lt;div style=&quot;color: rgb(204, 204, 204); font-family: &amp;quot;Droid Sans Mono&amp;quot;, &amp;quot;monospace&amp;quot;, monospace; font-weight: normal; line-height: 19px; white-space: pre;&quot;&gt;&lt;span style=&quot;color: rgb(78, 201, 176); background-color: light-dark(rgb(255, 255, 255), rgb(210, 210, 210));&quot;&gt;PrioritizedStratifiedReplayBuffer&lt;/span&gt;&lt;/div&gt;" style="swimlane;whiteSpace=wrap;html=1;fontSize=24;" vertex="1" parent="1">
          <mxGeometry x="200" y="240" width="430" height="390" as="geometry" />
        </mxCell>
        <mxCell id="pFw3Jc35ZW8T42Vb6-bO-6" value="Vertical Container" style="swimlane;whiteSpace=wrap;html=1;fontSize=24;" vertex="1" parent="1">
          <mxGeometry x="720" y="240" width="300" height="390" as="geometry" />
        </mxCell>
        <mxCell id="pFw3Jc35ZW8T42Vb6-bO-9" style="edgeStyle=orthogonalEdgeStyle;rounded=0;orthogonalLoop=1;jettySize=auto;html=1;entryX=0.5;entryY=0;entryDx=0;entryDy=0;fontSize=24;" edge="1" parent="1" source="pFw3Jc35ZW8T42Vb6-bO-7">
          <mxGeometry relative="1" as="geometry">
            <mxPoint x="1320" y="250.0000000000001" as="targetPoint" />
          </mxGeometry>
        </mxCell>
        <mxCell id="pFw3Jc35ZW8T42Vb6-bO-7" value="Start" style="ellipse;whiteSpace=wrap;html=1;fontSize=24;" vertex="1" parent="1">
          <mxGeometry x="1260" y="120" width="120" height="80" as="geometry" />
        </mxCell>
        <mxCell id="pFw3Jc35ZW8T42Vb6-bO-11" value="&lt;span style=&quot;font-size: 24px; font-weight: 400;&quot;&gt;buffer add&lt;/span&gt;" style="swimlane;whiteSpace=wrap;html=1;" vertex="1" parent="1">
          <mxGeometry x="1080" y="250" width="490" height="200" as="geometry" />
        </mxCell>
        <mxCell id="pFw3Jc35ZW8T42Vb6-bO-12" value="update buffer" style="rounded=0;whiteSpace=wrap;html=1;" vertex="1" parent="pFw3Jc35ZW8T42Vb6-bO-11">
          <mxGeometry x="20" y="40" width="120" height="60" as="geometry" />
        </mxCell>
        <mxCell id="pFw3Jc35ZW8T42Vb6-bO-13" value="update sumTree" style="rounded=0;whiteSpace=wrap;html=1;" vertex="1" parent="pFw3Jc35ZW8T42Vb6-bO-11">
          <mxGeometry x="180" y="40" width="120" height="60" as="geometry" />
        </mxCell>
      </root>
    </mxGraphModel>
  </diagram>
</mxfile>
